<?xml version="1.0" standalone="no"?>
<!DOCTYPE svg PUBLIC "-//W3C//DTD SVG 20010904//EN"
 "http://www.w3.org/TR/2001/REC-SVG-20010904/DTD/svg10.dtd">
<svg version="1.0" xmlns="http://www.w3.org/2000/svg"
 width="239.000000pt" height="231.000000pt" viewBox="0 0 239.000000 231.000000"
 preserveAspectRatio="xMidYMid meet">

<g transform="translate(0.000000,231.000000) scale(0.100000,-0.100000)"
fill="#000000" stroke="none">
<path d="M1018 2213 c6 -2 18 -2 25 0 6 3 1 5 -13 5 -14 0 -19 -2 -12 -5z"/>
<path d="M1108 2213 c7 -3 16 -2 19 1 4 3 -2 6 -13 5 -11 0 -14 -3 -6 -6z"/>
<path d="M989 2195 c37 -17 60 -20 46 -6 -6 5 -26 12 -45 15 l-35 7 34 -16z"/>
<path d="M1158 2203 c7 -3 16 -2 19 1 4 3 -2 6 -13 5 -11 0 -14 -3 -6 -6z"/>
<path d="M1108 2193 c7 -3 16 -2 19 1 4 3 -2 6 -13 5 -11 0 -14 -3 -6 -6z"/>
<path d="M1340 2190 c-9 -6 -10 -10 -3 -10 6 0 15 5 18 10 8 12 4 12 -15 0z"/>
<path d="M1398 2183 c6 -2 18 -2 25 0 6 3 1 5 -13 5 -14 0 -19 -2 -12 -5z"/>
<path d="M808 2139 c13 -7 21 -18 18 -26 -3 -7 -1 -13 4 -13 6 0 10 9 10 20 0
11 -4 20 -9 20 -5 0 -18 2 -28 5 -10 3 -8 0 5 -6z"/>
<path d="M1545 2120 c-3 -5 1 -10 10 -10 9 0 13 5 10 10 -3 6 -8 10 -10 10 -2
0 -7 -4 -10 -10z"/>
<path d="M1707 2083 c-11 -10 -8 -20 6 -26 8 -3 13 3 13 14 0 19 -8 24 -19 12z"/>
<path d="M750 2059 c0 -5 5 -7 10 -4 6 3 10 8 10 11 0 2 -4 4 -10 4 -5 0 -10
-5 -10 -11z"/>
<path d="M1761 2057 c2 -2 20 -14 39 -26 l35 -23 -28 26 c-15 14 -33 26 -39
26 -6 0 -9 -1 -7 -3z"/>
<path d="M595 2040 c-3 -5 1 -10 10 -10 9 0 13 5 10 10 -3 6 -8 10 -10 10 -2
0 -7 -4 -10 -10z"/>
<path d="M1748 2033 c6 -2 10 -9 7 -14 -4 -5 1 -6 10 -2 13 5 14 7 3 14 -7 5
-17 8 -23 8 -5 0 -4 -3 3 -6z"/>
<path d="M635 2020 c3 -5 8 -10 11 -10 2 0 4 5 4 10 0 6 -5 10 -11 10 -5 0 -7
-4 -4 -10z"/>
<path d="M598 2013 c7 -3 16 -2 19 1 4 3 -2 6 -13 5 -11 0 -14 -3 -6 -6z"/>
<path d="M484 1958 l-19 -23 25 20 c14 11 27 21 29 22 2 2 0 3 -6 3 -5 0 -18
-10 -29 -22z"/>
<path d="M1860 1950 c0 -5 5 -10 11 -10 5 0 7 -4 4 -10 -3 -6 4 -10 16 -10 21
0 22 1 4 20 -20 22 -35 26 -35 10z"/>
<path d="M530 1941 c0 -5 5 -13 10 -16 6 -3 10 -2 10 4 0 5 -4 13 -10 16 -5 3
-10 2 -10 -4z"/>
<path d="M447 1923 c-4 -3 -7 -11 -7 -17 0 -6 5 -5 12 2 6 6 9 14 7 17 -3 3
-9 2 -12 -2z"/>
<path d="M1240 1912 c0 -5 7 -13 16 -16 10 -4 14 -1 12 6 -5 15 -28 23 -28 10z"/>
<path d="M407 1886 c-4 -10 -1 -13 9 -9 7 3 14 9 14 14 0 14 -17 10 -23 -5z"/>
<path d="M453 1893 c-18 -7 -16 -23 2 -23 8 0 15 7 15 15 0 8 -1 15 -2 14 -2
0 -9 -3 -15 -6z"/>
<path d="M1528 1893 c7 -3 16 -2 19 1 4 3 -2 6 -13 5 -11 0 -14 -3 -6 -6z"/>
<path d="M1947 1866 c-4 -10 0 -14 13 -13 14 1 16 4 8 14 -13 16 -15 16 -21
-1z"/>
<path d="M375 1849 c-9 -14 -2 -20 14 -10 8 6 9 11 3 15 -6 3 -14 1 -17 -5z"/>
<path d="M1578 1853 c6 -2 18 -2 25 0 6 3 1 5 -13 5 -14 0 -19 -2 -12 -5z"/>
<path d="M430 1822 l-25 -25 33 19 c17 10 32 22 32 26 0 14 -14 7 -40 -20z"/>
<path d="M664 1833 c-9 -3 -9 -10 0 -28 14 -32 28 -32 23 0 -3 28 -8 34 -23
28z"/>
<path d="M1325 1829 c-5 -8 -4 -10 3 -5 7 4 12 1 12 -8 0 -9 -9 -16 -21 -16
-11 0 -17 -4 -14 -10 11 -17 33 -11 40 11 8 25 -9 47 -20 28z"/>
<path d="M1370 1825 c-16 -19 -1 -19 24 0 16 12 17 15 4 15 -8 0 -21 -7 -28
-15z"/>
<path d="M1480 1830 c-9 -6 -10 -10 -3 -10 6 0 15 5 18 10 8 12 4 12 -15 0z"/>
<path d="M1805 1830 c-3 -6 1 -7 9 -4 18 7 21 14 7 14 -6 0 -13 -4 -16 -10z"/>
<path d="M1977 1819 c6 -21 33 -34 33 -16 0 8 4 6 10 -3 6 -9 10 -10 10 -3 0
6 -13 18 -29 26 -26 13 -28 13 -24 -4z"/>
<path d="M996 1817 c3 -10 9 -15 12 -12 3 3 0 11 -7 18 -10 9 -11 8 -5 -6z"/>
<path d="M1750 1819 c0 -5 5 -7 10 -4 6 3 10 8 10 11 0 2 -4 4 -10 4 -5 0 -10
-5 -10 -11z"/>
<path d="M625 1810 c3 -5 11 -10 16 -10 6 0 7 5 4 10 -3 6 -11 10 -16 10 -6 0
-7 -4 -4 -10z"/>
<path d="M1149 1711 c-35 -61 -66 -110 -69 -110 -3 0 -21 22 -40 50 -59 84
-208 165 -265 143 -18 -7 -20 -20 -4 -30 19 -12 49 -88 49 -126 0 -21 -3 -38
-6 -38 -3 0 -28 25 -56 55 -66 72 -156 117 -237 119 -33 1 -62 -2 -66 -6 -4
-3 5 -27 20 -52 41 -70 55 -129 66 -267 14 -196 67 -325 160 -386 l40 -26 -31
-25 c-33 -26 -60 -70 -60 -100 0 -17 6 -19 48 -15 37 3 55 -1 87 -21 90 -57
125 -69 191 -63 59 4 66 2 112 -29 68 -45 86 -93 80 -208 -3 -64 -10 -95 -29
-133 l-26 -48 -71 3 c-75 3 -112 -8 -112 -34 0 -38 106 -45 171 -11 65 35 91
92 98 218 7 123 27 130 24 9 -1 -51 -8 -103 -18 -130 -10 -25 -18 -56 -19 -70
-1 -24 1 -25 59 -25 49 0 60 3 63 18 3 14 -4 17 -41 17 l-44 0 19 57 c11 32
22 104 27 167 11 166 43 202 169 190 84 -8 124 4 194 57 56 42 112 59 131 40
50 -50 36 62 -14 115 l-21 22 44 54 c85 104 111 201 101 382 -7 125 5 181 52
242 32 42 31 51 -3 59 -39 8 -116 -11 -175 -43 -47 -25 -137 -113 -137 -134 0
-5 -4 -6 -10 -3 -16 10 -11 85 9 142 10 29 16 55 13 58 -3 3 -19 5 -36 5 -52
0 -131 -45 -194 -109 l-59 -60 -24 51 c-31 66 -76 138 -87 138 -5 0 -38 -49
-73 -109z m-268 11 c52 -35 74 -61 61 -74 -7 -7 -12 -17 -12 -22 0 -6 7 -3 15
8 13 18 15 17 40 -10 48 -54 58 -81 43 -120 -10 -28 -14 -31 -19 -17 -3 10 -6
0 -5 -24 1 -41 -13 -70 -21 -45 -3 6 -9 9 -14 6 -6 -3 -3 -11 6 -18 13 -9 14
-17 5 -40 -14 -39 -15 -205 -1 -219 19 -19 12 -28 -11 -16 -22 12 -22 11 -8
-6 14 -17 13 -18 -2 -12 -21 7 -23 1 -6 -17 10 -11 15 -10 27 2 13 12 17 10
32 -19 9 -19 15 -36 12 -39 -3 -3 -8 0 -10 7 -2 7 -10 10 -17 7 -17 -7 -98 85
-91 103 2 8 1 12 -4 9 -15 -9 -56 94 -61 154 -6 65 1 183 11 203 14 25 22 156
10 172 -13 16 -21 45 -13 45 4 0 19 -8 33 -18z m669 -34 c-9 -36 -8 -61 9
-143 11 -54 18 -102 15 -106 -2 -4 1 -9 8 -11 8 -3 12 -39 12 -114 1 -91 -3
-117 -20 -155 -24 -51 -67 -99 -90 -99 -8 0 -13 -4 -10 -9 6 -9 -36 -31 -61
-31 -14 0 -14 2 0 24 9 13 26 54 38 91 17 54 20 79 14 133 -8 79 -31 183 -50
228 -7 18 -11 35 -7 38 3 4 -3 13 -14 21 -18 13 -18 14 -1 15 10 0 15 5 12 10
-4 6 -11 8 -17 4 -21 -13 22 53 58 90 32 31 100 68 112 60 2 -1 -2 -21 -8 -46z
m-292 -18 c16 -30 41 -77 56 -103 45 -79 77 -193 83 -292 7 -116 -6 -161 -62
-221 -42 -45 -47 -48 -107 -52 -55 -4 -61 -3 -50 10 10 13 9 16 -12 20 -14 3
-27 1 -29 -5 -2 -6 -19 4 -38 21 -18 17 -28 32 -21 32 7 0 10 5 7 10 -4 6 -12
7 -18 4 -8 -5 -8 -3 1 7 17 18 15 27 -5 25 -15 -1 -18 7 -16 44 1 28 -1 40 -6
31 -18 -29 -21 25 -6 102 5 24 12 36 19 34 7 -3 18 4 25 15 7 11 8 17 2 13
-41 -25 -24 58 37 185 34 70 102 184 107 178 2 -2 16 -28 33 -58z m602 31
c-44 -63 -52 -107 -46 -246 5 -104 4 -135 -8 -157 -8 -16 -11 -28 -5 -28 12 0
-18 -72 -36 -86 -8 -6 -15 -18 -15 -27 0 -24 -55 -82 -94 -101 -19 -9 -49 -16
-68 -16 l-33 1 25 22 c14 13 26 27 27 33 2 5 12 34 23 64 10 30 20 75 20 100
1 34 3 40 10 25 6 -14 8 0 8 45 -1 62 -1 63 -8 20 l-7 -45 -1 43 c-1 24 -7 74
-13 113 -12 68 -12 70 18 116 17 27 36 47 45 47 9 -1 14 4 12 11 -5 13 45 55
65 55 6 0 11 4 11 8 0 10 47 29 73 31 17 1 17 -1 -3 -28z m-1296 8 c-4 -7 0
-9 13 -5 26 8 127 -57 175 -113 33 -38 35 -45 27 -79 -12 -50 -10 -167 2 -222
6 -25 13 -62 16 -82 3 -21 9 -38 14 -38 5 0 9 -6 9 -13 0 -7 14 -29 31 -50
l30 -37 -42 0 c-52 0 -94 25 -153 92 -59 66 -75 116 -87 268 -11 138 -30 220
-60 263 l-20 27 26 0 c17 0 24 -4 19 -11z m236 -717 c0 -12 -23 -32 -37 -32
-7 0 -13 5 -13 10 0 6 7 10 15 10 8 0 15 5 15 10 0 6 5 10 10 10 6 0 10 -4 10
-8z m170 4 c0 -3 -4 -8 -10 -11 -5 -3 -10 -1 -10 4 0 6 5 11 10 11 6 0 10 -2
10 -4z m700 -25 c0 -5 -13 -11 -30 -13 -16 -3 -30 -1 -30 4 0 4 9 8 20 8 11 0
20 5 20 11 0 5 5 7 10 4 6 -3 10 -10 10 -14z m-300 -21 c0 -5 -5 -10 -11 -10
-5 0 -8 -4 -5 -9 4 -5 -4 -6 -16 -3 -19 5 -20 7 -5 10 9 2 17 8 17 13 0 5 5 9
10 9 6 0 10 -4 10 -10z m-549 -21 c13 -11 18 -18 11 -14 -57 29 -65 35 -51 35
9 0 27 -9 40 -21z m654 11 c-3 -5 -11 -10 -16 -10 -6 0 -7 5 -4 10 3 6 11 10
16 10 6 0 7 -4 4 -10z m-332 -7 c-7 -2 -19 -2 -25 0 -7 3 -2 5 12 5 14 0 19
-2 13 -5z m115 0 c-16 -2 -40 -2 -55 0 -16 2 -3 4 27 4 30 0 43 -2 28 -4z
m237 -23 c3 -5 1 -10 -4 -10 -6 0 -11 5 -11 10 0 6 2 10 4 10 3 0 8 -4 11 -10z
m-124 -33 c-10 -9 -11 -8 -5 6 3 10 9 15 12 12 3 -3 0 -11 -7 -18z m-192 -16
c-15 -5 -22 6 -14 19 6 9 10 9 16 -1 5 -8 4 -15 -2 -18z m401 25 c0 -2 -7 -7
-16 -10 -8 -3 -12 -2 -9 4 6 10 25 14 25 6z m-45 -16 c3 -5 1 -10 -4 -10 -6 0
-11 5 -11 10 0 6 2 10 4 10 3 0 8 -4 11 -10z m-588 -6 c-3 -3 -12 -4 -19 -1
-8 3 -5 6 6 6 11 1 17 -2 13 -5z m50 0 c-3 -3 -12 -4 -19 -1 -8 3 -5 6 6 6 11
1 17 -2 13 -5z m228 -122 c-3 -3 -11 0 -18 7 -9 10 -8 11 6 5 10 -3 15 -9 12
-12z m-192 -379 c-13 -2 -33 -2 -45 0 -13 2 -3 4 22 4 25 0 35 -2 23 -4z"/>
<path d="M911 1544 c0 -11 3 -14 6 -6 3 7 2 16 -1 19 -3 4 -6 -2 -5 -13z"/>
<path d="M930 1490 c0 -5 5 -10 10 -10 6 0 10 5 10 10 0 6 -4 10 -10 10 -5 0
-10 -4 -10 -10z"/>
<path d="M930 1435 c0 -8 5 -15 10 -15 6 0 10 7 10 15 0 8 -4 15 -10 15 -5 0
-10 -7 -10 -15z"/>
<path d="M931 1303 c-9 -10 -10 -18 -3 -25 7 -7 12 -3 17 12 9 27 4 32 -14 13z"/>
<path d="M884 1259 c-4 -7 -3 -14 4 -17 6 -2 8 -11 4 -20 -5 -15 -4 -15 12 1
17 17 17 20 4 34 -13 12 -17 12 -24 2z"/>
<path d="M1498 1688 c2 -10 7 -18 11 -18 4 0 7 8 7 18 0 10 -5 19 -12 19 -6 0
-9 -9 -6 -19z"/>
<path d="M1523 1590 c0 -23 3 -28 9 -16 5 9 5 23 0 32 -6 12 -9 7 -9 -16z"/>
<path d="M1531 1524 c0 -11 3 -14 6 -6 3 7 2 16 -1 19 -3 4 -6 -2 -5 -13z"/>
<path d="M1520 1466 c0 -8 4 -17 9 -20 5 -4 7 3 4 14 -6 23 -13 26 -13 6z"/>
<path d="M1481 1395 c0 -11 4 -29 9 -40 8 -18 9 -18 9 5 0 14 -4 32 -9 40 -8
12 -10 12 -9 -5z"/>
<path d="M1512 1305 c0 -16 2 -22 5 -12 2 9 2 23 0 30 -3 6 -5 -1 -5 -18z"/>
<path d="M1526 1215 c8 -37 14 -45 14 -19 0 10 -5 26 -10 34 -8 11 -9 7 -4
-15z"/>
<path d="M1491 1194 c0 -11 3 -14 6 -6 3 7 2 16 -1 19 -3 4 -6 -2 -5 -13z"/>
<path d="M1487 1156 c-16 -13 -16 -14 -1 -20 20 -8 27 -3 22 18 -2 12 -6 13
-21 2z"/>
<path d="M1526 1134 c-4 -9 -4 -19 -1 -22 2 -3 7 3 11 12 4 9 4 19 1 22 -2 3
-7 -3 -11 -12z"/>
<path d="M1443 1060 c-1 -11 2 -20 7 -20 4 0 7 7 6 15 -3 23 -12 26 -13 5z"/>
<path d="M1270 1580 c0 -5 5 -10 10 -10 6 0 10 5 10 10 0 6 -4 10 -10 10 -5 0
-10 -4 -10 -10z"/>
<path d="M1140 1535 c0 -8 4 -15 10 -15 5 0 7 7 4 15 -4 8 -8 15 -10 15 -2 0
-4 -7 -4 -15z"/>
<path d="M1042 1280 c0 -14 2 -19 5 -12 2 6 2 18 0 25 -3 6 -5 1 -5 -13z"/>
<path d="M1130 1056 c0 -2 9 -6 20 -9 11 -3 18 -1 14 4 -5 9 -34 13 -34 5z"/>
<path d="M1290 1056 c0 -2 7 -7 16 -10 8 -3 12 -2 9 4 -6 10 -25 14 -25 6z"/>
<path d="M1781 1655 c-1 -21 15 -52 23 -45 2 3 -2 19 -9 35 -10 23 -14 25 -14
10z"/>
<path d="M1656 1565 c-3 -9 -2 -13 3 -10 6 3 14 -3 20 -12 6 -10 10 -13 10 -8
0 6 -6 18 -13 28 -12 16 -14 16 -20 2z"/>
<path d="M1650 1530 c-8 -5 -12 -12 -9 -15 4 -3 12 1 19 10 14 17 11 19 -10 5z"/>
<path d="M1671 1464 c0 -11 3 -14 6 -6 3 7 2 16 -1 19 -3 4 -6 -2 -5 -13z"/>
<path d="M1682 1330 c0 -19 2 -27 5 -17 2 9 2 25 0 35 -3 9 -5 1 -5 -18z"/>
<path d="M1795 1329 c-4 -6 -5 -12 -2 -15 2 -3 7 2 10 11 7 17 1 20 -8 4z"/>
<path d="M1677 1246 c-4 -10 -7 -25 -6 -34 0 -11 4 -9 10 7 5 13 8 29 6 35 -2
5 -6 2 -10 -8z"/>
<path d="M1670 1168 c0 -3 6 -20 14 -38 10 -25 14 -28 19 -16 4 10 -1 26 -13
38 -11 12 -20 19 -20 16z"/>
<path d="M1650 1099 c0 -11 5 -17 10 -14 6 3 10 13 10 21 0 8 -4 14 -10 14 -5
0 -10 -9 -10 -21z"/>
<path d="M584 1689 c-9 -16 2 -22 21 -11 15 8 16 10 1 15 -8 3 -18 2 -22 -4z"/>
<path d="M693 1613 c-17 -6 -16 -20 1 -26 11 -4 13 -1 9 10 -5 12 -3 14 7 8 9
-5 11 -4 6 3 -4 7 -8 12 -9 11 -1 0 -8 -3 -14 -6z"/>
<path d="M642 1287 c15 -30 15 -30 21 -8 3 13 -1 21 -14 24 -16 4 -17 2 -7
-16z"/>
<path d="M720 1150 c0 -5 5 -10 10 -10 6 0 10 5 10 10 0 6 -4 10 -10 10 -5 0
-10 -4 -10 -10z"/>
<path d="M778 1109 c-7 -4 -3 -11 11 -18 17 -10 21 -9 21 3 0 8 6 16 13 19 6
3 2 4 -11 4 -12 -1 -28 -4 -34 -8z"/>
<path d="M342 1771 c1 -17 5 -28 10 -25 11 7 10 41 -1 49 -5 3 -9 -8 -9 -24z"/>
<path d="M375 1790 c4 -6 11 -8 16 -5 14 9 11 15 -7 15 -8 0 -12 -5 -9 -10z"/>
<path d="M1105 1791 c-6 -11 9 -23 19 -14 9 9 7 23 -3 23 -6 0 -12 -4 -16 -9z"/>
<path d="M310 1770 c-6 -11 -8 -20 -6 -20 3 0 10 9 16 20 6 11 8 20 6 20 -3 0
-10 -9 -16 -20z"/>
<path d="M1400 1779 c0 -5 5 -7 10 -4 6 3 10 8 10 11 0 2 -4 4 -10 4 -5 0 -10
-5 -10 -11z"/>
<path d="M1699 1773 c-13 -15 -12 -15 9 -4 23 12 28 21 13 21 -5 0 -15 -7 -22
-17z"/>
<path d="M2070 1760 c0 -5 5 -10 11 -10 5 0 7 5 4 10 -3 6 -8 10 -11 10 -2 0
-4 -4 -4 -10z"/>
<path d="M372 1732 c-7 -16 -9 -28 -3 -30 6 -2 7 -11 4 -20 -4 -13 -3 -14 5
-3 5 7 7 23 4 35 -5 21 -5 21 17 2 13 -12 19 -26 16 -35 -5 -12 -3 -13 5 -5
13 13 -2 54 -20 54 -5 0 -10 7 -12 15 -2 10 -7 5 -16 -13z"/>
<path d="M1050 1737 c0 -8 6 -14 14 -14 8 0 12 6 9 14 -3 7 -9 13 -14 13 -5 0
-9 -6 -9 -13z"/>
<path d="M2010 1740 c0 -5 4 -10 9 -10 6 0 13 5 16 10 3 6 -1 10 -9 10 -9 0
-16 -4 -16 -10z"/>
<path d="M300 1734 c0 -5 6 -18 13 -29 10 -13 16 -15 21 -6 5 7 5 15 2 18 -3
4 -6 0 -6 -8 -1 -8 -7 -3 -15 11 -8 14 -14 20 -15 14z"/>
<path d="M277 1717 c-3 -7 -2 -19 3 -26 5 -9 9 -8 14 5 4 9 3 21 -2 26 -6 6
-12 4 -15 -5z"/>
<path d="M1989 1724 c-1 -5 -3 -20 -4 -33 -2 -22 -1 -23 10 -8 6 9 15 14 18
10 4 -3 7 -2 7 4 0 13 -30 38 -31 27z"/>
<path d="M2020 1670 c0 -5 5 -10 10 -10 6 0 10 5 10 10 0 6 -4 10 -10 10 -5 0
-10 -4 -10 -10z"/>
<path d="M2129 1584 c-11 -14 -10 -16 9 -12 13 1 23 7 23 13 1 17 -17 16 -32
-1z"/>
<path d="M220 1554 c0 -8 5 -12 10 -9 6 4 8 11 5 16 -9 14 -15 11 -15 -7z"/>
<path d="M481 1544 c0 -11 3 -14 6 -6 3 7 2 16 -1 19 -3 4 -6 -2 -5 -13z"/>
<path d="M2180 1540 c0 -5 5 -10 10 -10 6 0 10 5 10 10 0 6 -4 10 -10 10 -5 0
-10 -4 -10 -10z"/>
<path d="M1942 1515 c0 -16 2 -22 5 -12 2 9 2 23 0 30 -3 6 -5 -1 -5 -18z"/>
<path d="M2115 1530 c-3 -5 -1 -10 4 -10 6 0 11 5 11 10 0 6 -2 10 -4 10 -3 0
-8 -4 -11 -10z"/>
<path d="M210 1504 c0 -8 5 -12 10 -9 6 4 8 11 5 16 -9 14 -15 11 -15 -7z"/>
<path d="M420 1510 c0 -5 5 -10 11 -10 5 0 7 5 4 10 -3 6 -8 10 -11 10 -2 0
-4 -4 -4 -10z"/>
<path d="M131 1334 c0 -11 3 -14 6 -6 3 7 2 16 -1 19 -3 4 -6 -2 -5 -13z"/>
<path d="M1939 1305 c-3 -5 -6 -23 -7 -40 -1 -25 0 -27 9 -12 6 10 9 28 7 40
-2 12 -6 18 -9 12z"/>
<path d="M2231 1284 c0 -12 6 -35 14 -50 12 -24 15 -26 15 -8 0 11 -4 24 -9
30 -5 5 -11 18 -14 29 -4 19 -5 19 -6 -1z"/>
<path d="M122 1270 c0 -14 2 -19 5 -12 2 6 2 18 0 25 -3 6 -5 1 -5 -13z"/>
<path d="M2206 1245 c9 -53 23 -80 24 -44 0 15 -7 40 -15 55 l-16 29 7 -40z"/>
<path d="M130 1195 c0 -27 3 -45 7 -41 7 7 5 77 -3 85 -2 2 -4 -17 -4 -44z"/>
<path d="M1930 1209 c0 -5 5 -7 10 -4 6 3 10 8 10 11 0 2 -4 4 -10 4 -5 0 -10
-5 -10 -11z"/>
<path d="M510 1192 c0 -12 3 -12 15 -2 8 7 15 13 15 15 0 1 -7 2 -15 2 -8 0
-15 -7 -15 -15z"/>
<path d="M1895 1160 c3 -5 8 -10 11 -10 2 0 4 5 4 10 0 6 -5 10 -11 10 -5 0
-7 -4 -4 -10z"/>
<path d="M551 1155 c0 -5 6 -19 14 -29 8 -11 15 -15 15 -10 0 6 -7 19 -15 30
-8 10 -14 15 -14 9z"/>
<path d="M2203 1110 c0 -25 2 -35 4 -22 2 12 2 32 0 45 -2 12 -4 2 -4 -23z"/>
<path d="M151 1105 c-1 -11 -4 -31 -6 -45 l-6 -25 11 25 c6 13 9 33 7 45 -4
19 -4 19 -6 0z"/>
<path d="M505 1110 c3 -5 8 -10 11 -10 2 0 4 5 4 10 0 6 -5 10 -11 10 -5 0 -7
-4 -4 -10z"/>
<path d="M1839 1108 c-6 -21 -5 -38 2 -38 4 0 6 -8 2 -17 -3 -10 -3 -15 1 -12
11 11 16 69 6 69 -6 0 -10 -1 -11 -2z"/>
<path d="M2228 1023 c-8 -26 -12 -59 -9 -73 3 -17 8 -3 16 45 7 39 11 72 9 73
-1 2 -9 -18 -16 -45z"/>
<path d="M1844 919 c-3 -6 -2 -15 3 -20 5 -5 9 -1 10 11 2 22 -2 25 -13 9z"/>
<path d="M587 913 c-10 -9 -9 -53 1 -53 5 0 9 14 10 30 1 32 -1 34 -11 23z"/>
<path d="M606 842 c-8 -13 30 -35 47 -28 7 2 4 5 -5 5 -9 1 -21 8 -26 17 -6
11 -12 13 -16 6z"/>
<path d="M1821 834 c0 -11 3 -14 6 -6 3 7 2 16 -1 19 -3 4 -6 -2 -5 -13z"/>
<path d="M1760 832 c0 -12 19 -26 26 -19 2 2 -2 10 -11 17 -9 8 -15 8 -15 2z"/>
<path d="M675 820 c3 -5 11 -10 16 -10 6 0 7 5 4 10 -3 6 -11 10 -16 10 -6 0
-7 -4 -4 -10z"/>
<path d="M740 819 c0 -5 5 -7 10 -4 6 3 10 8 10 11 0 2 -4 4 -10 4 -5 0 -10
-5 -10 -11z"/>
<path d="M2211 814 c0 -11 3 -14 6 -6 3 7 2 16 -1 19 -3 4 -6 -2 -5 -13z"/>
<path d="M206 813 c-9 -9 -7 -33 3 -33 12 0 22 28 12 34 -5 3 -11 3 -15 -1z"/>
<path d="M1635 800 c-10 -11 -13 -20 -8 -20 13 0 38 29 31 35 -3 3 -13 -4 -23
-15z"/>
<path d="M2100 800 c0 -5 5 -10 10 -10 6 0 10 5 10 10 0 6 -4 10 -10 10 -5 0
-10 -4 -10 -10z"/>
<path d="M750 760 c0 -5 5 -10 10 -10 6 0 10 5 10 10 0 6 -4 10 -10 10 -5 0
-10 -4 -10 -10z"/>
<path d="M832 756 c7 -8 17 -12 22 -9 4 3 2 9 -5 14 -22 13 -31 11 -17 -5z"/>
<path d="M900 760 c-18 -12 -2 -12 25 0 13 6 15 9 5 9 -8 0 -22 -4 -30 -9z"/>
<path d="M1554 761 c3 -5 16 -11 28 -14 22 -6 22 -5 4 8 -22 17 -40 20 -32 6z"/>
<path d="M951 756 c4 -4 21 -11 39 -16 20 -6 30 -6 24 -1 -10 11 -72 27 -63
17z"/>
<path d="M1350 750 c-8 -5 -10 -10 -5 -10 6 0 17 5 25 10 8 5 11 10 5 10 -5 0
-17 -5 -25 -10z"/>
<path d="M1670 751 c0 -6 5 -13 10 -16 6 -3 10 1 10 9 0 9 -4 16 -10 16 -5 0
-10 -4 -10 -9z"/>
<path d="M1035 740 c3 -5 10 -10 16 -10 5 0 9 5 9 10 0 6 -7 10 -16 10 -8 0
-12 -4 -9 -10z"/>
<path d="M1513 733 c9 -2 23 -2 30 0 6 3 -1 5 -18 5 -16 0 -22 -2 -12 -5z"/>
<path d="M1628 733 c7 -3 16 -2 19 1 4 3 -2 6 -13 5 -11 0 -14 -3 -6 -6z"/>
<path d="M1332 710 c0 -14 2 -19 5 -12 2 6 2 18 0 25 -3 6 -5 1 -5 -13z"/>
<path d="M2150 685 c-19 -36 -8 -40 12 -4 9 16 14 29 9 29 -4 0 -14 -11 -21
-25z"/>
<path d="M1337 663 c-4 -3 -7 -20 -6 -37 l1 -31 9 34 c10 33 8 47 -4 34z"/>
<path d="M2041 614 c0 -11 3 -14 6 -6 3 7 2 16 -1 19 -3 4 -6 -2 -5 -13z"/>
<path d="M2110 605 c-7 -9 -10 -18 -7 -21 3 -3 10 4 17 15 13 25 8 27 -10 6z"/>
<path d="M316 573 c-6 -14 -5 -15 5 -6 7 7 10 15 7 18 -3 3 -9 -2 -12 -12z"/>
<path d="M1334 545 c-1 -25 2 -45 7 -45 5 0 9 20 9 45 0 59 -15 59 -16 0z"/>
<path d="M2033 544 c1 -18 1 -32 2 -31 1 1 8 14 18 28 15 25 15 27 -2 32 -16
4 -19 -1 -18 -29z"/>
<path d="M320 523 c19 -24 35 -41 38 -39 2 3 -13 22 -33 43 l-37 38 32 -42z"/>
<path d="M1092 530 c0 -14 2 -19 5 -12 2 6 2 18 0 25 -3 6 -5 1 -5 -13z"/>
<path d="M355 530 c3 -5 8 -10 11 -10 2 0 4 5 4 10 0 6 -5 10 -11 10 -5 0 -7
-4 -4 -10z"/>
<path d="M390 520 c0 -5 5 -10 11 -10 5 0 7 5 4 10 -3 6 -8 10 -11 10 -2 0 -4
-4 -4 -10z"/>
<path d="M1950 465 c-8 -9 -8 -15 -2 -15 12 0 26 19 19 26 -2 2 -10 -2 -17
-11z"/>
<path d="M980 466 c0 -2 9 -6 20 -9 11 -3 18 -1 14 4 -5 9 -34 13 -34 5z"/>
<path d="M1414 455 c8 -8 20 -15 27 -15 7 0 4 6 -7 15 -25 19 -40 19 -20 0z"/>
<path d="M843 445 c-3 -9 -3 -18 -1 -21 3 -3 8 4 11 16 6 23 -1 27 -10 5z"/>
<path d="M1313 453 c-31 -6 -29 -18 2 -18 14 0 27 6 30 13 2 6 1 11 -3 11 -4
-1 -17 -4 -29 -6z"/>
<path d="M930 440 c-8 -5 -10 -10 -5 -10 6 0 17 5 25 10 8 5 11 10 5 10 -5 0
-17 -5 -25 -10z"/>
<path d="M1490 441 c0 -5 -7 -17 -16 -26 -15 -15 -15 -16 -1 -13 9 2 23 -6 31
-17 l16 -20 -7 20 c-3 11 -10 26 -16 33 -6 8 -6 12 2 12 6 0 11 5 11 10 0 6
-4 10 -10 10 -5 0 -10 -4 -10 -9z"/>
<path d="M870 429 c0 -5 5 -7 10 -4 6 3 10 8 10 11 0 2 -4 4 -10 4 -5 0 -10
-5 -10 -11z"/>
<path d="M1358 423 c7 -3 16 -2 19 1 4 3 -2 6 -13 5 -11 0 -14 -3 -6 -6z"/>
<path d="M1428 423 c7 -3 16 -2 19 1 4 3 -2 6 -13 5 -11 0 -14 -3 -6 -6z"/>
<path d="M881 406 c-9 -11 -9 -16 1 -22 7 -4 10 -4 6 1 -4 4 -3 14 3 22 6 7 9
13 6 13 -2 0 -10 -6 -16 -14z"/>
<path d="M1353 393 c-7 -2 -13 -11 -13 -19 0 -10 14 -14 55 -14 40 0 55 4 55
14 0 23 -60 35 -97 19z"/>
<path d="M537 377 c-3 -7 1 -21 9 -32 11 -15 17 -16 26 -7 9 9 8 12 -6 12 -13
0 -17 5 -13 20 6 22 -8 28 -16 7z"/>
<path d="M485 347 c45 -42 55 -49 55 -39 0 5 -9 17 -20 27 -11 10 -20 14 -20
10 0 -5 -10 0 -23 11 -13 10 -9 6 8 -9z"/>
<path d="M846 371 c-4 -6 -3 -19 3 -28 9 -17 10 -17 17 0 8 21 -10 45 -20 28z"/>
<path d="M1488 359 c6 -7 12 -21 12 -31 0 -10 4 -18 9 -18 15 0 0 48 -18 55
-13 5 -14 4 -3 -6z"/>
<path d="M1357 333 c-17 -17 -3 -23 52 -23 59 0 86 12 55 24 -21 8 -99 8 -107
-1z"/>
<path d="M880 321 c0 -5 7 -12 16 -15 14 -5 15 -4 4 9 -14 17 -20 19 -20 6z"/>
<path d="M1185 320 c-11 -18 6 -30 45 -30 48 0 70 8 70 26 0 17 -105 20 -115
4z"/>
<path d="M1077 314 c-3 -4 -31 -6 -61 -5 -61 1 -83 -13 -35 -23 82 -16 179 1
152 27 -8 9 -48 9 -56 1z"/>
<path d="M1321 304 c0 -11 3 -14 6 -6 3 7 2 16 -1 19 -3 4 -6 -2 -5 -13z"/>
<path d="M1695 290 c3 -5 8 -10 11 -10 2 0 4 5 4 10 0 6 -5 10 -11 10 -5 0 -7
-4 -4 -10z"/>
<path d="M1760 275 c-14 -8 -20 -14 -14 -15 5 0 19 7 30 15 24 18 16 19 -16 0z"/>
<path d="M630 275 c0 -2 10 -10 23 -16 20 -11 21 -11 8 4 -13 16 -31 23 -31
12z"/>
<path d="M770 270 c0 -5 7 -10 15 -10 8 0 15 5 15 10 0 6 -7 10 -15 10 -8 0
-15 -4 -15 -10z"/>
<path d="M1162 270 c-34 -14 -17 -30 31 -30 42 0 77 14 65 25 -11 11 -73 15
-96 5z"/>
<path d="M1297 269 c-28 -16 -10 -29 43 -29 61 0 111 17 90 30 -20 13 -111 12
-133 -1z"/>
<path d="M1488 263 c6 -2 18 -2 25 0 6 3 1 5 -13 5 -14 0 -19 -2 -12 -5z"/>
<path d="M610 250 c0 -5 5 -10 11 -10 5 0 7 5 4 10 -3 6 -8 10 -11 10 -2 0 -4
-4 -4 -10z"/>
<path d="M830 250 c0 -5 5 -10 11 -10 5 0 7 5 4 10 -3 6 -8 10 -11 10 -2 0 -4
-4 -4 -10z"/>
<path d="M957 253 c-22 -21 32 -39 83 -28 53 12 37 35 -23 35 -30 0 -57 -3
-60 -7z"/>
<path d="M1449 233 c-13 -17 -13 -17 6 -3 11 8 22 16 24 17 2 2 0 3 -6 3 -6 0
-17 -8 -24 -17z"/>
<path d="M1498 243 c7 -3 16 -2 19 1 4 3 -2 6 -13 5 -11 0 -14 -3 -6 -6z"/>
<path d="M1686 223 c-6 -14 -5 -15 5 -6 7 7 10 15 7 18 -3 3 -9 -2 -12 -12z"/>
<path d="M740 211 c0 -10 19 -25 25 -20 1 2 -3 10 -11 17 -8 7 -14 8 -14 3z"/>
<path d="M958 193 c7 -3 16 -2 19 1 4 3 -2 6 -13 5 -11 0 -14 -3 -6 -6z"/>
<path d="M840 181 c0 -5 -10 -7 -22 -3 -14 3 -19 2 -14 -6 10 -16 31 -15 46 3
9 10 9 15 1 15 -6 0 -11 -4 -11 -9z"/>
<path d="M1440 180 c0 -5 7 -10 15 -10 8 0 15 5 15 10 0 6 -7 10 -15 10 -8 0
-15 -4 -15 -10z"/>
<path d="M996 155 c-8 -8 -24 -15 -35 -15 -11 0 -23 -5 -27 -11 -4 -7 0 -9 13
-5 11 4 33 2 48 -4 25 -9 26 -9 15 5 -11 13 -9 15 14 15 16 0 26 5 26 15 0 8
-9 15 -19 15 -11 0 -26 -7 -35 -15z"/>
<path d="M1100 162 c0 -12 19 -26 26 -19 2 2 -2 10 -11 17 -9 8 -15 8 -15 2z"/>
<path d="M1408 123 c7 -3 16 -2 19 1 4 3 -2 6 -13 5 -11 0 -14 -3 -6 -6z"/>
<path d="M1465 120 c-8 -13 15 -13 35 0 12 8 11 10 -7 10 -12 0 -25 -4 -28
-10z"/>
<path d="M898 113 c7 -3 16 -2 19 1 4 3 -2 6 -13 5 -11 0 -14 -3 -6 -6z"/>
<path d="M1108 113 c7 -3 16 -2 19 1 4 3 -2 6 -13 5 -11 0 -14 -3 -6 -6z"/>
<path d="M1165 111 c-17 -8 -18 -10 -2 -10 9 -1 17 -5 17 -11 0 -5 12 -10 28
-9 l27 1 -30 13 -30 14 50 0 c50 0 147 -16 111 -18 -11 0 -17 -4 -13 -7 3 -3
16 -3 28 1 20 7 21 8 5 17 -24 14 -166 20 -191 9z"/>
<path d="M978 93 c6 -2 18 -2 25 0 6 3 1 5 -13 5 -14 0 -19 -2 -12 -5z"/>
<path d="M1108 83 c6 -2 18 -2 25 0 6 3 1 5 -13 5 -14 0 -19 -2 -12 -5z"/>
</g>
</svg>
